# xmcd
#
# Track frame offsets: 
#        150
#        14065
#        27006
#        38319
#        49152
#        63760
#        75968
#        89487
#        99999
#        112799
#        121416
#        130693
#        142782
#        153198
#
# Disc length: 2211 seconds
#
# Revision: 0
# Processed by: cddbd v1.5.2PL0 Copyright (c) Steve Scherf et al.
# Submitted via: ExactAudioCopy v0.95b3
#
DISCID=9608a10e
DTITLE=P.F. Sloan  - Songs Of Our Times (1965)
DYEAR=1900
DGENRE=
TTITLE0=The sins of a family
TTITLE1=Take me for what I´m worth
TTITLE2=What's exactly the matter with me
TTITLE3=I'd have to be out of my mind
TTITLE4=Eve of destruction
TTITLE5=This mornin'
TTITLE6=I get out of breath
TTITLE7=This is what I was made for
TTITLE8=Ain't no way I'm gonna change my mind
TTITLE9=All the things I do for you baby
TTITLE10=(Goes to show) Just how wrong you can be
TTITLE11=What am I doin' here with you
TTITLE12=I've got no more to say
TTITLE13=You're a lonely girl
EXTD=
EXTT0=
EXTT1=
EXTT2=
EXTT3=
EXTT4=
EXTT5=
EXTT6=
EXTT7=
EXTT8=
EXTT9=
EXTT10=
EXTT11=
EXTT12=
EXTT13=
PLAYORDER=
